<svg xmlns="http://www.w3.org/2000/svg" viewBox="0 0 180 270"><defs><style>.cls-1{fill:none;stroke:#f7921e;stroke-linecap:round;stroke-linejoin:round;stroke-width:15px;}</style></defs><g id="Layer_2" data-name="Layer 2"><g id="Layer_1-2" data-name="Layer 1"><rect class="cls-1" x="7.5" y="217.5" width="165" height="45" rx="10.67"/><polygon class="cls-1" points="37.5 217.5 52.5 82.5 127.5 82.5 142.5 217.5 37.5 217.5"/><rect class="cls-1" x="37.5" y="52.5" width="105" height="30" rx="7.5"/><path class="cls-1" d="M90,7.5h0A22.5,22.5,0,0,1,112.5,30V52.5a0,0,0,0,1,0,0h-45a0,0,0,0,1,0,0V30A22.5,22.5,0,0,1,90,7.5Z"/><line class="cls-1" x1="52.5" y1="112.5" x2="127.5" y2="112.5"/><line class="cls-1" x1="37.5" y1="217.5" x2="127.5" y2="127.5"/><line class="cls-1" x1="142.5" y1="217.5" x2="52.5" y2="127.5"/></g></g></svg>