<svg xmlns="http://www.w3.org/2000/svg" viewBox="0 0 310 144.93"><defs><style>.cls-1{fill:none;stroke:#e5746e;stroke-linecap:round;stroke-linejoin:round;stroke-width:10px;}.cls-2{fill:#e5746e;}</style></defs><g id="Layer_2" data-name="Layer 2"><g id="Layer_1-2" data-name="Layer 1"><path class="cls-1" d="M5,33.91S24.28,53.19,24.28,72.47,5,111,5,111s28.91,0,38.55-9.64,19.28-9.64,19.28-9.64a96,96,0,0,1,38.55,9.64c19.28,9.64,57.83,9.64,106,9.64s77.1-9.64,96.38-28.92c0,0-3.21.65-10.44-1.65-9.19-2.92.8-17.62,10.44-17.62S265.23,33.91,188.12,33.91,82.1,72.47,53.19,53.19,14.64,33.91,5,33.91Z"/><path class="cls-1" d="M53.19,53.19s-9.64,9.64-9.64,19.28,9.64,19.27,9.64,19.27"/><path class="cls-1" d="M271,46a29.48,29.48,0,0,0-15.4,26.52c-48.19-28.92-125.3-9.64-154.21,0s-57.83,0-57.83,0"/><path class="cls-1" d="M233.45,109.92s-26-8.54-26-27.82,57.83,19.28,57.83,19.28c-9.64-9.64-9.64-28.91-9.64-28.91"/><path class="cls-1" d="M178.48,33.91A34.24,34.24,0,0,0,159.21,5L130.29,24.28l11,13.6Z"/><path class="cls-1" d="M139.93,111v28.91s19.28,0,28.92-28.91Z"/><path class="cls-1" d="M72.47,93.56l9.63,27.1s17.54,3.11,27.18-16.17Z"/><circle class="cls-2" cx="278.68" cy="67.65" r="4.82"/></g></g></svg>