<svg viewBox="0 0 256 256" xmlns="http://www.w3.org/2000/svg">
   <defs>
      <clipPath clipPathUnits="userSpaceOnUse" id="cp_a">
         <path d="M0 1080h1920V0H0z" transform="translate(-709.968 -164.454)" />
      </clipPath>
      <clipPath clipPathUnits="userSpaceOnUse" id="cp_b">
         <path
            d="M637.25 274.505c-10.309 0-18.667-8.357-18.667-18.666V183.12c0-10.309 8.358-18.666 18.667-18.666h72.719c10.308 0 18.666 8.357 18.666 18.666v72.719c0 10.309-8.358 18.666-18.666 18.666z"
            transform="translate(-584.857 -269.077)" />
      </clipPath>
      <clipPath clipPathUnits="userSpaceOnUse" id="cp_c">
         <path
            d="M637.25 274.505c-10.309 0-18.667-8.357-18.667-18.666V183.12c0-10.309 8.358-18.666 18.667-18.666h72.719c10.308 0 18.666 8.357 18.666 18.666v72.719c0 10.309-8.358 18.666-18.666 18.666z"
            transform="translate(-565.896 -232.825)" />
      </clipPath>
      <clipPath clipPathUnits="userSpaceOnUse" id="cp_d">
         <path
            d="M637.25 274.505c-10.309 0-18.667-8.357-18.667-18.666V183.12c0-10.309 8.358-18.666 18.667-18.666h72.719c10.308 0 18.666 8.357 18.666 18.666v72.719c0 10.309-8.358 18.666-18.666 18.666z"
            transform="translate(-542.104 -216.79)" />
      </clipPath>
      <clipPath clipPathUnits="userSpaceOnUse" id="cp_e">
         <path d="M0 1080h1920V0H0z" transform="translate(-673.61 -194.145)" />
      </clipPath>
      <clipPath clipPathUnits="userSpaceOnUse" id="cp_f">
         <path d="M0 1080h1920V0H0z" transform="translate(-684.87 -219.48)" />
      </clipPath>
   </defs>
   <path
      d="M0 0h-72.719c-10.309 0-18.666 8.357-18.666 18.666v72.719c0 10.309 8.357 18.667 18.666 18.667H0c10.309 0 18.666-8.358 18.666-18.667V18.666C18.666 8.357 10.309 0 0 0"
      transform="matrix(2.32617 0 0 -2.32617 212.578 256)" clip-path="url(#cp_a)" />
   <path
      d="M0 0c8.341 20.407 16.683 46.504 26.024 73.8 17.17-16.574 34.341-28.907 51.512-33.89 17.17-5.421 34.341-3.493 51.511-1.757 34.341 4.349 68.683 4.149 103.024-75.112-8.342-.953-16.681-5.809-25.023-17.731-34.34 50.637-68.683 46.347-103.024 34.077-17.17-5.372-34.341-10.896-51.511-8.629C34.342-27.305 17.171-17.575 0 0"
      transform="matrix(2.32617 0 0 -2.32617 -78.452 12.628)" clip-path="url(#cp_b)" fill="#002f49" />
   <path
      d="M0 0c6.321 8.436 12.642 20.721 18.961 36.252C36.132 18.677 53.303 8.947 70.473 7.012c17.171-2.263 34.341 3.27 51.513 8.468 34.34 12.419 68.683 16.724 103.023-33.917-6.32-8.917-12.641-21.69-18.962-37.616-17.171 17.266-34.341 26.93-51.512 28.864-17.17 2.266-34.34-3.197-51.512-8.312C68.682-47.696 34.341-51.868 0 0"
      transform="matrix(2.32617 0 0 -2.32617 -122.558 96.958)" clip-path="url(#cp_c)" fill="#258bab" />
   <path
      d="M0 0c8.341.952 16.682 5.808 25.024 17.73 34.34-50.637 68.683-46.346 103.023-34.077 17.171 5.373 34.342 10.897 51.512 8.631 17.171-1.938 34.341-11.667 51.512-29.243-8.342-20.407-16.683-46.504-25.024-73.799-17.17 16.573-34.341 28.905-51.511 33.889-17.171 5.421-34.342 3.494-51.513 1.757C68.682-79.461 34.341-79.261 0 0"
      transform="matrix(2.32617 0 0 -2.32617 -177.902 134.257)" clip-path="url(#cp_d)" fill="#a2d1cf" />
   <g fill="#fff">
      <path
         d="M0 0c13.236 0 22.794 11.168 22.794 25.852C22.794 39.915 13.236 50.67 0 50.67s-22.248-10.755-22.248-24.818C-22.248 11.168-13.236 0 0 0m0 63.286c21.612 0 36.312-16.442 36.312-37.434 0-21.612-14.7-38.468-36.312-38.468S-36.312 4.24-36.312 25.852c0 20.992 14.7 37.434 36.312 37.434"
         transform="matrix(2.32617 0 0 -2.32617 128 186.934)" clip-path="url(#cp_e)" />
      <path d="M0 0l-17.057 16.329v-32.658z" transform="matrix(2.32617 0 0 -2.32617 154.195 128)"
         clip-path="url(#cp_f)" />
   </g>
</svg>