<svg viewBox="0 0 256 256" xmlns="http://www.w3.org/2000/svg">
   <defs>
      <clipPath clipPathUnits="userSpaceOnUse" id="cp_a">
         <path d="M0 1080h1920V0H0z" transform="translate(-883.217 -164.454)" />
      </clipPath>
      <clipPath clipPathUnits="userSpaceOnUse" id="cp_b">
         <path
            d="M810.545 219.997c0-21.613 14.7-38.468 36.312-38.468s36.312 16.855 36.312 38.468c0 20.992-14.7 37.434-36.312 37.434s-36.312-16.442-36.312-37.434m14.064 0c0 14.063 9.012 24.817 22.248 24.817s22.795-10.754 22.795-24.817c0-14.685-9.559-25.853-22.795-25.853-13.236 0-22.248 11.168-22.248 25.853m16.452-.518v-16.328l17.057 16.328-17.057 16.33z"
            transform="translate(-758.105 -269.077)" />
      </clipPath>
      <clipPath clipPathUnits="userSpaceOnUse" id="cp_c">
         <path
            d="M810.545 219.997c0-21.613 14.7-38.468 36.312-38.468s36.312 16.855 36.312 38.468c0 20.992-14.7 37.434-36.312 37.434s-36.312-16.442-36.312-37.434m14.064 0c0 14.063 9.012 24.817 22.248 24.817s22.795-10.754 22.795-24.817c0-14.685-9.559-25.853-22.795-25.853-13.236 0-22.248 11.168-22.248 25.853m16.452-.518v-16.328l17.057 16.328-17.057 16.33z"
            transform="translate(-739.144 -232.825)" />
      </clipPath>
      <clipPath clipPathUnits="userSpaceOnUse" id="cp_d">
         <path
            d="M810.545 219.997c0-21.613 14.7-38.468 36.312-38.468s36.312 16.855 36.312 38.468c0 20.992-14.7 37.434-36.312 37.434s-36.312-16.442-36.312-37.434m14.064 0c0 14.063 9.012 24.817 22.248 24.817s22.795-10.754 22.795-24.817c0-14.685-9.559-25.853-22.795-25.853-13.236 0-22.248 11.168-22.248 25.853m16.452-.518v-16.328l17.057 16.328-17.057 16.33z"
            transform="translate(-715.352 -216.79)" />
      </clipPath>
   </defs>
   <path
      d="M0 0h-72.719c-10.309 0-18.666 8.357-18.666 18.666v72.719c0 10.309 8.357 18.667 18.666 18.667H0c10.309 0 18.666-8.358 18.666-18.667V18.666C18.666 8.357 10.309 0 0 0z"
      transform="matrix(2.30525 0 0 -2.30523 211.818 254.847)" clip-path="url(#cp_a)" fill="none" stroke="#000"
      stroke-miterlimit="10" />
   <path
      d="M0 0c8.341 20.407 16.683 46.504 26.024 73.8 17.171-16.574 34.341-28.907 51.512-33.89 17.17-5.421 34.341-3.493 51.511-1.757 34.342 4.349 68.682 4.149 103.024-75.112-8.342-.953-16.681-5.809-25.023-17.731-34.34 50.637-68.681 46.347-103.024 34.077-17.17-5.372-34.341-10.896-51.512-8.629C34.342-27.305 17.171-17.575 0 0"
      transform="matrix(2.30525 0 0 -2.30523 -76.595 13.667)" clip-path="url(#cp_b)" fill="#002f49" />
   <path
      d="M0 0c6.32 8.436 12.641 20.721 18.961 36.252C36.132 18.677 53.303 8.947 70.473 7.012c17.171-2.263 34.342 3.27 51.512 8.468 34.342 12.419 68.682 16.724 103.024-33.917-6.321-8.917-12.641-21.69-18.962-37.616-17.171 17.266-34.342 26.93-51.511 28.864-17.171 2.266-34.341-3.197-51.512-8.312C68.682-47.696 34.343-51.868 0 0"
      transform="matrix(2.30525 0 0 -2.30523 -120.304 97.237)" clip-path="url(#cp_c)" fill="#258bab" />
   <path
      d="M0 0c8.342.952 16.684 5.808 25.024 17.73 34.341-50.637 68.682-46.346 103.023-34.077 17.171 5.373 34.341 10.897 51.512 8.631 17.17-1.938 34.341-11.667 51.512-29.243-8.341-20.407-16.683-46.504-25.024-73.799-17.171 16.573-34.341 28.905-51.511 33.889-17.171 5.421-34.342 3.494-51.513 1.757C68.683-79.461 34.34-79.261 0 0"
      transform="matrix(2.30525 0 0 -2.30523 -175.15 134.2)" clip-path="url(#cp_d)" fill="#a2d1cf" />
</svg>